<svg width="24" height="24" viewBox="0 0 24 24" fill="none" xmlns="http://www.w3.org/2000/svg">
<g clip-path="url(#clip0_10772_518315)">
<path d="M12 0C5.37284 0 0 5.37284 0 12C0 18.6272 5.37284 24 12 24C18.6272 24 24 18.6272 24 12C24 5.37284 18.6272 0 12 0Z" fill="#D83A52" fill-opacity="0.25"/>
<path d="M12 18.857C12.9469 18.857 13.7144 18.0894 13.7144 17.1426C13.7144 16.1958 12.9469 15.4282 12 15.4282C11.0532 15.4282 10.2856 16.1958 10.2856 17.1426C10.2856 18.0894 11.0532 18.857 12 18.857Z" fill="#D83A52"/>
<path d="M13.3715 12.943C13.3273 13.3837 12.9543 13.7185 12.511 13.7145H11.4823C11.0417 13.7152 10.6727 13.3817 10.6285 12.943L9.94274 6.08549C9.8972 5.61269 10.2441 5.19213 10.7169 5.1466C10.7457 5.14392 10.7745 5.14258 10.8033 5.14258H13.2034C13.6789 5.14392 14.0626 5.53099 14.0613 6.0058C14.0613 6.03258 14.0599 6.0587 14.0573 6.08482L13.3715 12.943Z" fill="#D83A52"/>
</g>
<defs>
<clipPath id="clip0_10772_518315">
<rect width="24" height="24" fill="white"/>
</clipPath>
</defs>
</svg>
