<svg width="32" height="32" viewBox="0 0 32 32" fill="none" xmlns="http://www.w3.org/2000/svg">
<g clip-path="url(#clip0_18583_53880)">
<path d="M27.3134 27.3136C33.5617 21.0653 33.5617 10.9347 27.3134 4.6864C21.065 -1.56193 10.9345 -1.56193 4.68616 4.6864C-1.56217 10.9347 -1.56217 21.0653 4.68616 27.3136C10.9345 33.5619 21.065 33.5619 27.3134 27.3136Z" fill="#3DC575"/>
<path d="M12.3604 23.4914C12.5175 23.6486 12.7309 23.737 12.9532 23.737C13.1756 23.737 13.389 23.6486 13.5461 23.4914L24.9727 12.0649C25.1298 11.9078 25.2182 11.6944 25.2182 11.472C25.2182 11.2497 25.1298 11.0363 24.9727 10.8791L22.602 8.50847C22.2743 8.18077 21.7439 8.18077 21.4171 8.50847L12.9541 16.9714L10.5835 14.6008C10.4263 14.4436 10.2129 14.3552 9.99058 14.3552C9.76825 14.3552 9.55484 14.4436 9.39769 14.6008L7.02702 16.9714C6.69933 17.2991 6.69933 17.8295 7.02702 18.1563L12.3604 23.4914Z" fill="white"/>
</g>
<defs>
<clipPath id="clip0_18583_53880">
<rect width="32" height="32" fill="white"/>
</clipPath>
</defs>
</svg>
